<?xml version="1.0" standalone="no"?>
<!DOCTYPE svg PUBLIC "-//W3C//DTD SVG 20010904//EN"
 "http://www.w3.org/TR/2001/REC-SVG-20010904/DTD/svg10.dtd">
<svg version="1.0" xmlns="http://www.w3.org/2000/svg"
 width="1280.000000pt" height="640.000000pt" viewBox="0 0 1280.000000 640.000000"
 preserveAspectRatio="xMidYMid meet">
<metadata>
Created by potrace 1.15, written by Peter Selinger 2001-2017
</metadata>
<g transform="translate(0.000000,640.000000) scale(0.100000,-0.100000)"
fill="#000000" stroke="none">
<path d="M1761 3749 c-195 -38 -339 -143 -415 -303 -19 -39 -37 -78 -39 -88
-5 -15 -11 -14 -64 7 -83 34 -157 43 -423 50 -250 7 -328 0 -425 -36 -81 -30
-165 -97 -213 -169 -129 -192 -103 -476 58 -641 136 -139 305 -165 695 -110
121 18 249 40 285 51 67 20 139 61 178 103 l22 23 54 -52 c61 -60 142 -104
237 -130 50 -15 100 -18 229 -18 150 1 181 4 331 36 91 19 192 47 223 61 60
28 153 109 187 164 l21 34 33 -48 c75 -109 183 -186 318 -224 72 -21 103 -24
247 -23 163 1 166 1 309 43 178 52 236 80 315 152 93 85 144 190 170 346 13
73 14 60 15 -224 l1 -303 183 0 c169 1 186 3 237 24 l55 24 5 124 5 123 24
-100 c13 -55 30 -121 38 -147 l14 -48 160 0 c154 0 162 1 204 25 l43 26 53
212 54 212 3 -237 2 -238 183 0 c179 0 184 1 205 23 l22 23 0 611 0 610 -25
11 c-18 8 -113 12 -299 12 l-273 0 -57 -227 c-31 -126 -60 -235 -63 -243 -3
-8 -32 86 -64 209 -32 123 -62 227 -66 231 -28 23 -109 30 -373 30 l-282 0 6
-282 c5 -276 3 -289 -24 -155 -36 177 -173 330 -354 394 -72 25 -340 63 -446
63 -228 0 -404 -73 -520 -215 -19 -23 -39 -50 -45 -59 -8 -15 -17 -8 -53 42
-101 140 -193 180 -482 212 -182 21 -343 24 -419 9z m1673 -379 c61 -54 80
-108 84 -245 3 -90 0 -137 -12 -185 -20 -79 -63 -136 -97 -132 -41 5 -96 49
-118 94 -48 100 -48 306 0 406 18 37 78 92 101 92 4 0 23 -14 42 -30z m-1320
-63 l28 -57 128 0 c100 0 155 6 246 25 64 14 118 24 120 22 2 -1 -1 -34 -7
-71 -6 -37 -9 -110 -7 -162 2 -65 0 -94 -8 -94 -6 0 -56 14 -110 30 -90 28
-107 30 -194 25 -164 -10 -153 -5 -178 -88 -12 -39 -29 -81 -38 -92 -15 -20
-16 -19 -43 13 -16 18 -34 52 -41 75 -18 62 -25 233 -11 297 13 62 57 143 74
138 7 -2 25 -29 41 -61z m-794 -491 c0 -2 3 -12 6 -20 6 -15 -7 -16 -122 -10
-71 3 -172 1 -224 -4 -92 -10 -109 -7 -110 20 0 4 78 9 173 11 94 1 196 4 225
5 28 1 52 0 52 -2z"/>
<path d="M10325 3739 c-82 -11 -175 -26 -205 -35 -113 -33 -211 -99 -275 -185
l-42 -57 -27 63 c-51 118 -139 180 -288 205 -93 15 -848 12 -923 -3 l-60 -13
0 -608 0 -608 64 -24 c60 -23 76 -24 282 -24 l219 0 2 188 3 187 85 -160 85
-160 70 -25 c66 -23 84 -24 337 -28 l267 -3 -106 208 c-109 213 -173 311 -225
343 l-29 17 33 14 c18 7 56 33 85 56 l53 43 0 -73 c0 -152 59 -302 161 -412
87 -92 158 -125 374 -171 345 -74 576 -52 726 67 l39 31 0 -36 c0 -20 1 -36 3
-36 1 0 67 -11 147 -25 142 -24 155 -25 693 -25 l547 0 0 165 c0 91 -3 165 -7
165 -5 0 -82 7 -173 15 -91 8 -236 15 -322 15 l-158 0 0 80 0 80 298 2 297 3
3 153 3 152 -296 0 -295 0 0 70 0 70 274 0 c150 0 294 3 320 6 l46 7 0 153 0
154 -547 0 c-475 0 -716 -8 -800 -26 -20 -4 -23 -11 -23 -49 0 -25 -2 -45 -5
-45 -3 0 -24 15 -48 33 -135 103 -326 128 -662 86z m-1186 -320 c37 -13 51
-35 51 -79 0 -56 -17 -73 -87 -90 l-33 -8 0 94 c0 104 2 106 69 83z m1384
-123 l14 -41 141 -3 c119 -2 157 1 246 21 58 13 107 22 109 20 4 -3 -4 -335
-7 -340 -1 -1 -47 11 -101 28 -87 26 -233 46 -356 49 -10 0 -22 -22 -37 -68
-13 -41 -36 -85 -56 -108 -34 -38 -35 -39 -50 -19 -34 43 -50 126 -51 255 0
138 16 206 62 261 l26 30 23 -22 c13 -12 29 -40 37 -63z"/>
<path d="M5740 3095 l0 -645 184 0 c182 0 184 0 190 23 3 12 6 166 7 342 0
198 4 312 9 300 5 -11 46 -165 91 -342 l82 -323 161 0 162 0 84 332 85 332 5
-315 c3 -173 9 -322 14 -331 7 -16 27 -18 192 -18 l184 0 0 645 0 645 -275 0
c-251 0 -275 -1 -283 -17 -5 -10 -45 -156 -88 -325 -43 -170 -81 -305 -85
-300 -3 4 -41 142 -83 307 -42 165 -79 308 -82 318 -5 16 -27 17 -280 17
l-274 0 0 -645z"/>
<path d="M7348 3724 l-28 -15 0 -602 0 -603 28 -27 28 -27 547 0 547 0 -2 167
-3 167 -55 12 c-37 9 -143 13 -327 14 l-273 0 0 80 0 80 298 2 297 3 3 153 3
152 -301 0 -301 0 3 68 3 67 320 5 c176 3 321 7 323 8 1 1 2 72 2 157 l0 155
-542 0 c-462 -1 -547 -3 -570 -16z"/>
</g>
</svg>
